<!-- src/assets/cosmic-bg.svg -->
<svg width="1920" height="1080" viewBox="0 0 1920 1080" xmlns="http://www.w3.org/2000/svg">
  <defs>
    <!-- Nebulosa -->
    <radialGradient id="nebulaCyan" cx="0" cy="0">
      <stop offset="0%" stop-color="#06b6d4" stop-opacity=".45"></stop>
      <stop offset="100%" stop-color="#06b6d4" stop-opacity="0"></stop>
    </radialGradient>
    <radialGradient id="nebulaPurple" cx="0" cy="0">
      <stop offset="0%" stop-color="#a78bfa" stop-opacity=".40"></stop>
      <stop offset="100%" stop-color="#a78bfa" stop-opacity="0"></stop>
    </radialGradient>
    <filter id="soft" x="-20%" y="-20%" width="140%" height="140%">
      <feGaussianBlur stdDeviation="60"></feGaussianBlur>
    </filter>
  </defs>

  <!-- fondo base muy oscuro -->
  <rect width="100%" height="100%" fill="#070c1a"></rect>

  <!-- nebulosas suaves -->
  <circle cx="300" cy="200" r="450" fill="url(#nebulaCyan)" filter="url(#soft)"></circle>
  <circle cx="1620" cy="240" r="420" fill="url(#nebulaPurple)" filter="url(#soft)"></circle>
  <circle cx="960" cy="900" r="500" fill="url(#nebulaCyan)" filter="url(#soft)" opacity=".55"></circle>

  <!-- estrellas (puntos blancos) -->
  <g fill="white" opacity=".85">
    <circle cx="140" cy="120" r="1.1"></circle><circle cx="320" cy="260" r="0.9"></circle>
    <circle cx="520" cy="180" r="1.2"></circle><circle cx="740" cy="140" r="1.0"></circle>
    <circle cx="920" cy="220" r="1.3"></circle><circle cx="1120" cy="160" r="0.9"></circle>
    <circle cx="1290" cy="300" r="1.1"></circle><circle cx="1500" cy="190" r="1.2"></circle>
    <circle cx="1700" cy="260" r="0.9"></circle><circle cx="250" cy="520" r="1.0"></circle>
    <circle cx="480" cy="460" r="1.1"></circle><circle cx="700" cy="520" r="0.9"></circle>
    <circle cx="930" cy="480" r="1.2"></circle><circle cx="1160" cy="520" r="1.0"></circle>
    <circle cx="1380" cy="480" r="1.1"></circle><circle cx="1600" cy="540" r="0.9"></circle>
    <circle cx="300" cy="820" r="1.1"></circle><circle cx="560" cy="720" r="1.0"></circle>
    <circle cx="820" cy="780" r="1.2"></circle><circle cx="1080" cy="860" r="1.1"></circle>
    <circle cx="1340" cy="740" r="1.0"></circle><circle cx="1580" cy="860" r="1.1"></circle>
  </g>
</svg>
